<svg xmlns="http://www.w3.org/2000/svg" viewBox="0 0 800 450">
  <defs>
    <linearGradient id="bg" x1="0%" y1="0%" x2="100%" y2="100%">
      <stop offset="0%" style="stop-color:#0A0A0B"/>
      <stop offset="100%" style="stop-color:#111113"/>
    </linearGradient>
    <linearGradient id="barGradient" x1="0%" y1="0%" x2="100%" y2="0%">
      <stop offset="0%" style="stop-color:#10B981"/>
      <stop offset="100%" style="stop-color:#0066FF"/>
    </linearGradient>
  </defs>

  <!-- Background -->
  <rect width="800" height="450" fill="url(#bg)"/>

  <!-- Title -->
  <text x="400" y="40" fill="white" font-family="Arial, sans-serif" font-size="22" font-weight="bold" text-anchor="middle">Average ROI by Industry</text>

  <!-- Chart area -->
  <g transform="translate(180, 60)">
    <!-- Bars -->
    <g transform="translate(0, 10)">
      <text x="-10" y="17" fill="#A1A1AA" font-family="Arial, sans-serif" font-size="11" text-anchor="end">Medical</text>
      <rect x="0" y="0" width="400" height="25" rx="4" fill="url(#barGradient)"/>
      <text x="410" y="17" fill="#10B981" font-family="Arial, sans-serif" font-size="12" font-weight="bold">52x</text>
    </g>

    <g transform="translate(0, 45)">
      <text x="-10" y="17" fill="#A1A1AA" font-family="Arial, sans-serif" font-size="11" text-anchor="end">Dental</text>
      <rect x="0" y="0" width="350" height="25" rx="4" fill="url(#barGradient)" opacity="0.9"/>
      <text x="360" y="17" fill="#10B981" font-family="Arial, sans-serif" font-size="12" font-weight="bold">45x</text>
    </g>

    <g transform="translate(0, 80)">
      <text x="-10" y="17" fill="#A1A1AA" font-family="Arial, sans-serif" font-size="11" text-anchor="end">Legal</text>
      <rect x="0" y="0" width="300" height="25" rx="4" fill="url(#barGradient)" opacity="0.85"/>
      <text x="310" y="17" fill="#10B981" font-family="Arial, sans-serif" font-size="12" font-weight="bold">38x</text>
    </g>

    <g transform="translate(0, 115)">
      <text x="-10" y="17" fill="#A1A1AA" font-family="Arial, sans-serif" font-size="11" text-anchor="end">Estate</text>
      <rect x="0" y="0" width="260" height="25" rx="4" fill="url(#barGradient)" opacity="0.8"/>
      <text x="270" y="17" fill="#10B981" font-family="Arial, sans-serif" font-size="12" font-weight="bold">34x</text>
    </g>

    <g transform="translate(0, 150)">
      <text x="-10" y="17" fill="#A1A1AA" font-family="Arial, sans-serif" font-size="11" text-anchor="end">Trades</text>
      <rect x="0" y="0" width="240" height="25" rx="4" fill="url(#barGradient)" opacity="0.75"/>
      <text x="250" y="17" fill="#10B981" font-family="Arial, sans-serif" font-size="12" font-weight="bold">31x</text>
    </g>

    <g transform="translate(0, 185)">
      <text x="-10" y="17" fill="#A1A1AA" font-family="Arial, sans-serif" font-size="11" text-anchor="end">Beauty</text>
      <rect x="0" y="0" width="160" height="25" rx="4" fill="url(#barGradient)" opacity="0.7"/>
      <text x="170" y="17" fill="#0066FF" font-family="Arial, sans-serif" font-size="12" font-weight="bold">21x</text>
    </g>

    <g transform="translate(0, 220)">
      <text x="-10" y="17" fill="#A1A1AA" font-family="Arial, sans-serif" font-size="11" text-anchor="end">Veterinary</text>
      <rect x="0" y="0" width="140" height="25" rx="4" fill="url(#barGradient)" opacity="0.65"/>
      <text x="150" y="17" fill="#0066FF" font-family="Arial, sans-serif" font-size="12" font-weight="bold">18x</text>
    </g>

    <g transform="translate(0, 255)">
      <text x="-10" y="17" fill="#A1A1AA" font-family="Arial, sans-serif" font-size="11" text-anchor="end">Restaurant</text>
      <rect x="0" y="0" width="120" height="25" rx="4" fill="url(#barGradient)" opacity="0.6"/>
      <text x="130" y="17" fill="#0066FF" font-family="Arial, sans-serif" font-size="12" font-weight="bold">15x</text>
    </g>

    <g transform="translate(0, 290)">
      <text x="-10" y="17" fill="#A1A1AA" font-family="Arial, sans-serif" font-size="11" text-anchor="end">Auto</text>
      <rect x="0" y="0" width="100" height="25" rx="4" fill="url(#barGradient)" opacity="0.55"/>
      <text x="110" y="17" fill="#0066FF" font-family="Arial, sans-serif" font-size="12" font-weight="bold">12x</text>
    </g>

    <g transform="translate(0, 325)">
      <text x="-10" y="17" fill="#A1A1AA" font-family="Arial, sans-serif" font-size="11" text-anchor="end">Fitness</text>
      <rect x="0" y="0" width="80" height="25" rx="4" fill="url(#barGradient)" opacity="0.5"/>
      <text x="90" y="17" fill="#0066FF" font-family="Arial, sans-serif" font-size="12" font-weight="bold">10x</text>
    </g>
  </g>

  <!-- Note -->
  <g transform="translate(80, 420)">
    <text x="320" y="0" fill="#A1A1AA" font-family="Arial, sans-serif" font-size="10" text-anchor="middle">*Average ROI based on £400/month subscription. Individual results vary by business size and call volume.</text>
  </g>
</svg>