<svg xmlns="http://www.w3.org/2000/svg" viewBox="0 0 48 48">
  <defs>
    <linearGradient id="grad" x1="0%" y1="0%" x2="100%" y2="100%">
      <stop offset="0%" stop-color="#0066FF"/>
      <stop offset="100%" stop-color="#8B5CF6"/>
    </linearGradient>
  </defs>

  <!-- Circuit Lines -->
  <path d="M24 14 L24 6 L32 6" stroke="url(#grad)" stroke-width="2" fill="none" stroke-linecap="round"/>
  <path d="M34 24 L42 24 L42 16" stroke="url(#grad)" stroke-width="2" fill="none" stroke-linecap="round"/>
  <path d="M24 34 L24 42 L16 42" stroke="url(#grad)" stroke-width="2" fill="none" stroke-linecap="round"/>
  <path d="M14 24 L6 24 L6 32" stroke="url(#grad)" stroke-width="2" fill="none" stroke-linecap="round"/>

  <!-- Neural Nodes -->
  <circle cx="32" cy="6" r="3" fill="#0066FF"/>
  <circle cx="42" cy="16" r="3" fill="#0066FF"/>
  <circle cx="16" cy="42" r="3" fill="#8B5CF6"/>
  <circle cx="6" cy="32" r="3" fill="#8B5CF6"/>

  <!-- Core Circle -->
  <circle cx="24" cy="24" r="10" fill="url(#grad)"/>

  <!-- Phone Icon -->
  <path d="M21 19.5c0-.83.67-1.5 1.5-1.5h3c.83 0 1.5.67 1.5 1.5v9c0 .83-.67 1.5-1.5 1.5h-3c-.83 0-1.5-.67-1.5-1.5v-9z" fill="white"/>
  <circle cx="24" cy="27.5" r="1" fill="url(#grad)"/>
</svg>
