<svg xmlns="http://www.w3.org/2000/svg" viewBox="0 0 1200 630" width="1200" height="630">
  <defs>
    <!-- Background Gradient -->
    <radialGradient id="bgGrad" cx="50%" cy="30%" r="80%">
      <stop offset="0%" stop-color="#111113"/>
      <stop offset="100%" stop-color="#0A0A0B"/>
    </radialGradient>

    <!-- Logo Gradient -->
    <linearGradient id="logoGrad" x1="0%" y1="0%" x2="100%" y2="100%">
      <stop offset="0%" stop-color="#0066FF"/>
      <stop offset="100%" stop-color="#8B5CF6"/>
    </linearGradient>

    <!-- Orb Filters -->
    <filter id="blur1" x="-50%" y="-50%" width="200%" height="200%">
      <feGaussianBlur in="SourceGraphic" stdDeviation="60"/>
    </filter>
    <filter id="blur2" x="-50%" y="-50%" width="200%" height="200%">
      <feGaussianBlur in="SourceGraphic" stdDeviation="50"/>
    </filter>
  </defs>

  <!-- Background -->
  <rect width="1200" height="630" fill="url(#bgGrad)"/>

  <!-- Decorative Orbs -->
  <circle cx="200" cy="150" r="200" fill="#0066FF" opacity="0.08" filter="url(#blur1)"/>
  <circle cx="1000" cy="480" r="180" fill="#8B5CF6" opacity="0.06" filter="url(#blur2)"/>
  <circle cx="600" cy="315" r="150" fill="#0066FF" opacity="0.04" filter="url(#blur1)"/>

  <!-- Logo Group (centered) -->
  <g transform="translate(600, 260)">
    <!-- Circuit Lines -->
    <path d="M0 -40 L0 -64 L32 -64" stroke="url(#logoGrad)" stroke-width="4" fill="none" stroke-linecap="round"/>
    <path d="M40 0 L72 0 L72 -32" stroke="url(#logoGrad)" stroke-width="4" fill="none" stroke-linecap="round"/>
    <path d="M0 40 L0 64 L-32 64" stroke="url(#logoGrad)" stroke-width="4" fill="none" stroke-linecap="round"/>
    <path d="M-40 0 L-72 0 L-72 32" stroke="url(#logoGrad)" stroke-width="4" fill="none" stroke-linecap="round"/>

    <!-- Neural Nodes -->
    <circle cx="32" cy="-64" r="8" fill="#0066FF"/>
    <circle cx="72" cy="-32" r="8" fill="#0066FF"/>
    <circle cx="-32" cy="64" r="8" fill="#8B5CF6"/>
    <circle cx="-72" cy="32" r="8" fill="#8B5CF6"/>

    <!-- Core Circle -->
    <circle cx="0" cy="0" r="40" fill="url(#logoGrad)"/>

    <!-- Phone Icon -->
    <path d="M-12 -20c0-3.3 2.7-6 6-6h12c3.3 0 6 2.7 6 6v36c0 3.3-2.7 6-6 6h-12c-3.3 0-6-2.7-6-6v-36z" fill="white"/>
    <circle cx="0" cy="12" r="4" fill="url(#logoGrad)"/>
  </g>

  <!-- Logo Text -->
  <g transform="translate(600, 420)">
    <text x="-140" y="0" font-family="Inter, -apple-system, sans-serif" font-size="48" font-weight="800" fill="white">No Missed</text>
    <text x="100" y="0" font-family="Inter, -apple-system, sans-serif" font-size="48" font-weight="800" fill="url(#logoGrad)">Calls</text>
  </g>

  <!-- Tagline -->
  <text x="600" y="490" text-anchor="middle" font-family="Inter, -apple-system, sans-serif" font-size="20" fill="#A1A1AA">
    AI Receptionist That Never Misses a Call
  </text>
</svg>
