<svg xmlns="http://www.w3.org/2000/svg" viewBox="0 0 1200 630" width="1200" height="630">
  <defs>
    <radialGradient id="bgGrad" cx="50%" cy="30%" r="80%">
      <stop offset="0%" stop-color="#111113"/>
      <stop offset="100%" stop-color="#0A0A0B"/>
    </radialGradient>
    <linearGradient id="accentGrad" x1="0%" y1="0%" x2="100%" y2="100%">
      <stop offset="0%" stop-color="#0066FF"/>
      <stop offset="100%" stop-color="#8B5CF6"/>
    </linearGradient>
    <linearGradient id="purpleGrad" x1="0%" y1="0%" x2="100%" y2="100%">
      <stop offset="0%" stop-color="#8B5CF6"/>
      <stop offset="100%" stop-color="#6D28D9"/>
    </linearGradient>
    <filter id="blur1" x="-50%" y="-50%" width="200%" height="200%">
      <feGaussianBlur in="SourceGraphic" stdDeviation="60"/>
    </filter>
    <filter id="glow" x="-50%" y="-50%" width="200%" height="200%">
      <feGaussianBlur in="SourceGraphic" stdDeviation="8"/>
    </filter>
  </defs>

  <!-- Background -->
  <rect width="1200" height="630" fill="url(#bgGrad)"/>

  <!-- Decorative Orbs -->
  <circle cx="200" cy="120" r="200" fill="#0066FF" opacity="0.08" filter="url(#blur1)"/>
  <circle cx="1000" cy="500" r="180" fill="#8B5CF6" opacity="0.06" filter="url(#blur1)"/>

  <!-- Category Badge -->
  <rect x="80" y="80" width="160" height="36" rx="18" fill="url(#purpleGrad)"/>
  <text x="160" y="104" text-anchor="middle" font-family="Inter, sans-serif" font-size="14" font-weight="700" fill="white">COMPARISON</text>

  <!-- AI vs Human Icons -->
  <g transform="translate(600, 180)">
    <!-- AI Robot Side -->
    <g transform="translate(-140, 0)">
      <!-- Glow effect -->
      <circle cx="0" cy="0" r="60" fill="#0066FF" opacity="0.15" filter="url(#glow)"/>
      <!-- Robot head -->
      <rect x="-28" y="-35" width="56" height="50" rx="10" fill="none" stroke="#0066FF" stroke-width="3"/>
      <!-- Eyes -->
      <circle cx="-10" cy="-15" r="6" fill="#0066FF"/>
      <circle cx="10" cy="-15" r="6" fill="#0066FF"/>
      <!-- Mouth/speaker -->
      <rect x="-15" y="0" width="30" height="4" rx="2" fill="#0066FF"/>
      <!-- Antenna -->
      <line x1="0" y1="-35" x2="0" y2="-50" stroke="#0066FF" stroke-width="3"/>
      <circle cx="0" cy="-55" r="5" fill="#0066FF"/>
      <!-- Body -->
      <rect x="-22" y="20" width="44" height="35" rx="6" fill="none" stroke="#0066FF" stroke-width="3"/>
      <!-- Chest light -->
      <circle cx="0" cy="35" r="8" fill="#0066FF" opacity="0.5"/>
    </g>

    <!-- VS Badge -->
    <g transform="translate(0, 5)">
      <circle cx="0" cy="0" r="28" fill="#1a1a1c" stroke="#A1A1AA" stroke-width="2"/>
      <text x="0" y="8" text-anchor="middle" font-family="Inter, sans-serif" font-size="20" font-weight="800" fill="#A1A1AA">VS</text>
    </g>

    <!-- Human Side -->
    <g transform="translate(140, 0)">
      <!-- Glow effect -->
      <circle cx="0" cy="0" r="60" fill="#A1A1AA" opacity="0.1" filter="url(#glow)"/>
      <!-- Head -->
      <circle cx="0" cy="-30" r="20" fill="none" stroke="#A1A1AA" stroke-width="3"/>
      <!-- Body -->
      <path d="M-30 55 L-30 20 C-30 0, -15 -5, 0 -5 C15 -5, 30 0, 30 20 L30 55" fill="none" stroke="#A1A1AA" stroke-width="3" stroke-linecap="round"/>
      <!-- Arms -->
      <path d="M-30 15 L-45 35" stroke="#A1A1AA" stroke-width="3" stroke-linecap="round"/>
      <path d="M30 15 L45 35" stroke="#A1A1AA" stroke-width="3" stroke-linecap="round"/>
    </g>
  </g>

  <!-- Title -->
  <text x="600" y="340" text-anchor="middle" font-family="Inter, sans-serif" font-size="48" font-weight="800" fill="white">
    <tspan fill="#0066FF">AI Receptionist</tspan> vs Human
  </text>
  <text x="600" y="400" text-anchor="middle" font-family="Inter, sans-serif" font-size="48" font-weight="800" fill="white">
    Receptionist: <tspan fill="#8B5CF6">2025</tspan> Comparison
  </text>

  <!-- Stats -->
  <g transform="translate(600, 510)">
    <!-- AI Cost -->
    <g transform="translate(-280, 0)">
      <text x="0" y="0" text-anchor="middle" font-family="Inter, sans-serif" font-size="36" font-weight="800" fill="#10B981">£4.8K</text>
      <text x="0" y="30" text-anchor="middle" font-family="Inter, sans-serif" font-size="14" fill="#A1A1AA">AI Cost/Year</text>
    </g>

    <!-- Human Cost -->
    <g transform="translate(0, 0)">
      <text x="0" y="0" text-anchor="middle" font-family="Inter, sans-serif" font-size="36" font-weight="800" fill="#EF4444">£30K</text>
      <text x="0" y="30" text-anchor="middle" font-family="Inter, sans-serif" font-size="14" fill="#A1A1AA">Human Cost/Year</text>
    </g>

    <!-- 24/7 -->
    <g transform="translate(280, 0)">
      <text x="0" y="0" text-anchor="middle" font-family="Inter, sans-serif" font-size="36" font-weight="800" fill="#0066FF">24/7</text>
      <text x="0" y="30" text-anchor="middle" font-family="Inter, sans-serif" font-size="14" fill="#A1A1AA">AI Availability</text>
    </g>
  </g>

  <!-- Brand -->
  <text x="1120" y="600" text-anchor="end" font-family="Inter, sans-serif" font-size="16" font-weight="600" fill="#A1A1AA">nomissedcalls.uk</text>
</svg>
